<svg width="149" height="31" viewBox="0 0 149 31" fill="none" xmlns="http://www.w3.org/2000/svg">
    <path d="M11.7538 4.6V8.6H0V4.6H11.7538ZM2.66843 0H8.08153V17.9C8.08153 18.3917 8.15777 18.775 8.31025 19.05C8.46273 19.3167 8.67451 19.5042 8.94559 19.6125C9.22514 19.7208 9.54705 19.775 9.91131 19.775C10.1654 19.775 10.4196 19.7542 10.6737 19.7125C10.9279 19.6625 11.1227 19.625 11.2582 19.6L12.1096 23.5625C11.8385 23.6458 11.4573 23.7417 10.966 23.85C10.4746 23.9667 9.87742 24.0375 9.17431 24.0625C7.86975 24.1125 6.72614 23.9417 5.74348 23.55C4.76929 23.1583 4.01112 22.55 3.46896 21.725C2.9268 20.9 2.65996 19.8583 2.66843 18.6V0Z"
          fill="white"/>
    <path d="M20.8455 24.1625C19.6002 24.1625 18.4905 23.95 17.5163 23.525C16.5421 23.0917 15.7713 22.4542 15.2037 21.6125C14.6446 20.7625 14.365 19.7042 14.365 18.4375C14.365 17.3708 14.5641 16.475 14.9623 15.75C15.3604 15.025 15.9026 14.4417 16.5887 14C17.2749 13.5583 18.0543 13.225 18.9268 13C19.8078 12.775 20.7312 12.6167 21.6969 12.525C22.832 12.4083 23.7469 12.3 24.4415 12.2C25.1362 12.0917 25.6402 11.9333 25.9537 11.725C26.2671 11.5167 26.4238 11.2083 26.4238 10.8V10.725C26.4238 9.93333 26.1697 9.32083 25.6614 8.8875C25.1616 8.45417 24.45 8.2375 23.5267 8.2375C22.5525 8.2375 21.7773 8.45 21.2013 8.875C20.6253 9.29167 20.2441 9.81667 20.0577 10.45L15.0512 10.05C15.3053 8.88333 15.8052 7.875 16.5506 7.025C17.2961 6.16667 18.2576 5.50833 19.4351 5.05C20.621 4.58333 21.9934 4.35 23.5521 4.35C24.6364 4.35 25.6741 4.475 26.6652 4.725C27.6648 4.975 28.5501 5.3625 29.321 5.8875C30.1003 6.4125 30.7145 7.0875 31.1634 7.9125C31.6124 8.72917 31.8369 9.70833 31.8369 10.85V23.8H26.7034V21.1375H26.5509C26.2374 21.7375 25.8181 22.2667 25.2929 22.725C24.7677 23.175 24.1366 23.5292 23.3996 23.7875C22.6626 24.0375 21.8112 24.1625 20.8455 24.1625ZM22.3957 20.4875C23.192 20.4875 23.8951 20.3333 24.5051 20.025C25.115 19.7083 25.5936 19.2833 25.9409 18.75C26.2883 18.2167 26.4619 17.6125 26.4619 16.9375V14.9C26.2925 15.0083 26.0595 15.1083 25.7631 15.2C25.475 15.2833 25.1489 15.3625 24.7846 15.4375C24.4204 15.5042 24.0561 15.5667 23.6918 15.625C23.3276 15.675 22.9972 15.7208 22.7007 15.7625C22.0654 15.8542 21.5105 16 21.0361 16.2C20.5617 16.4 20.1932 16.6708 19.9306 17.0125C19.668 17.3458 19.5367 17.7625 19.5367 18.2625C19.5367 18.9875 19.8036 19.5417 20.3372 19.925C20.8794 20.3 21.5656 20.4875 22.3957 20.4875Z"
          fill="white"/>
    <path d="M36.0365 31V4.6H41.3734V7.825H41.6148C41.852 7.30833 42.1951 6.78333 42.644 6.25C43.1015 5.70833 43.6945 5.25833 44.423 4.9C45.16 4.53333 46.0749 4.35 47.1677 4.35C48.5908 4.35 49.9039 4.71667 51.1068 5.45C52.3097 6.175 53.2712 7.27083 53.9912 8.7375C54.7113 10.1958 55.0713 12.025 55.0713 14.225C55.0713 16.3667 54.7197 18.175 54.0166 19.65C53.322 21.1167 52.3732 22.2292 51.1703 22.9875C49.9759 23.7375 48.6374 24.1125 47.155 24.1125C46.1045 24.1125 45.2108 23.9417 44.4738 23.6C43.7453 23.2583 43.1481 22.8292 42.6822 22.3125C42.2162 21.7875 41.8605 21.2583 41.6148 20.725H41.4496V31H36.0365ZM41.3352 14.2C41.3352 15.3417 41.4962 16.3375 41.8181 17.1875C42.14 18.0375 42.6059 18.7 43.2158 19.175C43.8258 19.6417 44.567 19.875 45.4395 19.875C46.3205 19.875 47.066 19.6375 47.6759 19.1625C48.2859 18.6792 48.7475 18.0125 49.061 17.1625C49.3829 16.3042 49.5438 15.3167 49.5438 14.2C49.5438 13.0917 49.3871 12.1167 49.0737 11.275C48.7603 10.4333 48.2986 9.775 47.6886 9.3C47.0787 8.825 46.329 8.5875 45.4395 8.5875C44.5585 8.5875 43.8131 8.81667 43.2031 9.275C42.6017 9.73333 42.14 10.3833 41.8181 11.225C41.4962 12.0667 41.3352 13.0583 41.3352 14.2Z"
          fill="white"/>
    <path d="M74.9193 10.075L69.9637 10.375C69.879 9.95833 69.6968 9.58333 69.4173 9.25C69.1377 8.90833 68.7692 8.6375 68.3118 8.4375C67.8628 8.22917 67.3249 8.125 66.698 8.125C65.8594 8.125 65.152 8.3 64.576 8.65C63.9999 8.99167 63.7119 9.45 63.7119 10.025C63.7119 10.4833 63.8983 10.8708 64.271 11.1875C64.6438 11.5042 65.2833 11.7583 66.1897 11.95L69.7222 12.65C71.6198 13.0333 73.0345 13.65 73.9663 14.5C74.8981 15.35 75.3641 16.4667 75.3641 17.85C75.3641 19.1083 74.9871 20.2125 74.2332 21.1625C73.4877 22.1125 72.4627 22.8542 71.1581 23.3875C69.862 23.9125 68.3669 24.175 66.6726 24.175C64.0889 24.175 62.0304 23.6458 60.4971 22.5875C58.9723 21.5208 58.0786 20.0708 57.816 18.2375L63.1401 17.9625C63.3011 18.7375 63.6907 19.3292 64.3092 19.7375C64.9275 20.1375 65.7196 20.3375 66.6853 20.3375C67.6341 20.3375 68.3965 20.1583 68.9725 19.8C69.5571 19.4333 69.8536 18.9625 69.862 18.3875C69.8536 17.9042 69.646 17.5083 69.2394 17.2C68.8328 16.8833 68.2059 16.6417 67.3588 16.475L63.9788 15.8125C62.0727 15.4375 60.6538 14.7875 59.722 13.8625C58.7986 12.9375 58.3369 11.7583 58.3369 10.325C58.3369 9.09167 58.6758 8.02917 59.3535 7.1375C60.0397 6.24583 61.0011 5.55833 62.2379 5.075C63.4832 4.59167 64.9403 4.35 66.6091 4.35C69.0742 4.35 71.0141 4.8625 72.4288 5.8875C73.852 6.9125 74.6821 8.30833 74.9193 10.075Z"
          fill="white"/>
    <path d="M82.6228 23.8L77.3114 4.6H82.788L85.8122 17.5H85.9901L89.1414 4.6H94.5164L97.7185 17.425H97.8837L100.857 4.6H106.321L101.022 23.8H95.2915L91.9369 11.725H91.6955L88.3409 23.8H82.6228Z"
          fill="white"/>
    <path d="M114.774 24.1625C113.529 24.1625 112.419 23.95 111.445 23.525C110.471 23.0917 109.7 22.4542 109.132 21.6125C108.573 20.7625 108.294 19.7042 108.294 18.4375C108.294 17.3708 108.493 16.475 108.891 15.75C109.289 15.025 109.831 14.4417 110.517 14C111.204 13.5583 111.983 13.225 112.855 13C113.736 12.775 114.66 12.6167 115.626 12.525C116.761 12.4083 117.676 12.3 118.37 12.2C119.065 12.0917 119.569 11.9333 119.882 11.725C120.196 11.5167 120.353 11.2083 120.353 10.8V10.725C120.353 9.93333 120.098 9.32083 119.59 8.8875C119.09 8.45417 118.379 8.2375 117.455 8.2375C116.481 8.2375 115.706 8.45 115.13 8.875C114.554 9.29167 114.173 9.81667 113.986 10.45L108.98 10.05C109.234 8.88333 109.734 7.875 110.479 7.025C111.225 6.16667 112.186 5.50833 113.364 5.05C114.55 4.58333 115.922 4.35 117.481 4.35C118.565 4.35 119.603 4.475 120.594 4.725C121.594 4.975 122.479 5.3625 123.25 5.8875C124.029 6.4125 124.643 7.0875 125.092 7.9125C125.541 8.72917 125.766 9.70833 125.766 10.85V23.8H120.632V21.1375H120.48C120.166 21.7375 119.747 22.2667 119.222 22.725C118.696 23.175 118.065 23.5292 117.328 23.7875C116.591 24.0375 115.74 24.1625 114.774 24.1625ZM116.324 20.4875C117.121 20.4875 117.824 20.3333 118.434 20.025C119.044 19.7083 119.522 19.2833 119.87 18.75C120.217 18.2167 120.391 17.6125 120.391 16.9375V14.9C120.221 15.0083 119.988 15.1083 119.692 15.2C119.404 15.2833 119.078 15.3625 118.713 15.4375C118.349 15.5042 117.985 15.5667 117.621 15.625C117.256 15.675 116.926 15.7208 116.629 15.7625C115.994 15.8542 115.439 16 114.965 16.2C114.49 16.4 114.122 16.6708 113.859 17.0125C113.597 17.3458 113.465 17.7625 113.465 18.2625C113.465 18.9875 113.732 19.5417 114.266 19.925C114.808 20.3 115.494 20.4875 116.324 20.4875Z"
          fill="white"/>
    <path d="M129.965 31V4.6H135.302V7.825H135.543C135.781 7.30833 136.124 6.78333 136.573 6.25C137.03 5.70833 137.623 5.25833 138.352 4.9C139.089 4.53333 140.004 4.35 141.096 4.35C142.52 4.35 143.833 4.71667 145.035 5.45C146.238 6.175 147.2 7.27083 147.92 8.7375C148.64 10.1958 149 12.025 149 14.225C149 16.3667 148.648 18.175 147.945 19.65C147.251 21.1167 146.302 22.2292 145.099 22.9875C143.905 23.7375 142.566 24.1125 141.084 24.1125C140.033 24.1125 139.14 23.9417 138.403 23.6C137.674 23.2583 137.077 22.8292 136.611 22.3125C136.145 21.7875 135.789 21.2583 135.543 20.725H135.378V31H129.965ZM135.264 14.2C135.264 15.3417 135.425 16.3375 135.747 17.1875C136.069 18.0375 136.535 18.7 137.145 19.175C137.754 19.6417 138.496 19.875 139.368 19.875C140.249 19.875 140.995 19.6375 141.605 19.1625C142.215 18.6792 142.676 18.0125 142.99 17.1625C143.312 16.3042 143.473 15.3167 143.473 14.2C143.473 13.0917 143.316 12.1167 143.002 11.275C142.689 10.4333 142.227 9.775 141.617 9.3C141.007 8.825 140.258 8.5875 139.368 8.5875C138.487 8.5875 137.742 8.81667 137.132 9.275C136.53 9.73333 136.069 10.3833 135.747 11.225C135.425 12.0667 135.264 13.0583 135.264 14.2Z"
          fill="white"/>
</svg>
